<svg xmlns="http://www.w3.org/2000/svg" width="375" viewBox="0 0 375 375" height="375" version="1.0"><defs><clipPath id="a"><path d="M 94 232 L 271 232 L 271 350.703125 L 94 350.703125 Z M 94 232"/></clipPath><clipPath id="b"><path d="M 15 60 L 364.226562 60 L 364.226562 247 L 15 247 Z M 15 60"/></clipPath><clipPath id="c"><path d="M 255 24.453125 L 302 24.453125 L 302 83 L 255 83 Z M 255 24.453125"/></clipPath><clipPath id="d"><path d="M 94 24.453125 L 141 24.453125 L 141 83 L 94 83 Z M 94 24.453125"/></clipPath></defs><path fill="#FFDE17" d="M 108.789062 74.558594 C 110.304688 75.285156 111.886719 75.816406 113.535156 76.144531 C 115.183594 76.476562 116.847656 76.601562 118.527344 76.515625 C 120.207031 76.429688 121.847656 76.140625 123.457031 75.644531 C 125.0625 75.144531 126.582031 74.460938 128.015625 73.582031 C 130.199219 72.214844 131.996094 70.457031 133.402344 68.296875 C 133.941406 67.492188 134.257812 66.605469 134.355469 65.636719 C 134.449219 64.671875 134.3125 63.742188 133.941406 62.84375 C 133.566406 61.914062 132.996094 61.125 132.226562 60.484375 C 131.457031 59.839844 130.582031 59.414062 129.597656 59.210938 C 128.117188 58.890625 126.664062 58.460938 125.242188 57.929688 C 123.820312 57.398438 122.445312 56.769531 121.113281 56.039062 C 119.78125 55.308594 118.511719 54.488281 117.300781 53.574219 C 116.085938 52.660156 114.945312 51.667969 113.878906 50.589844 C 112.808594 49.511719 111.824219 48.363281 110.917969 47.144531 C 110.015625 45.925781 109.207031 44.644531 108.488281 43.308594 C 107.769531 41.972656 107.148438 40.59375 106.628906 39.167969 C 106.109375 37.742188 105.695312 36.285156 105.382812 34.800781 C 99.933594 43.496094 98.523438 54.375 101.550781 65.507812 C 102.058594 67.460938 102.941406 69.226562 104.203125 70.804688 C 105.464844 72.382812 106.992188 73.632812 108.789062 74.558594 Z M 108.789062 74.558594"/><path fill="#FFDE17" d="M 268.007812 73.582031 C 269.441406 74.460938 270.960938 75.148438 272.566406 75.644531 C 274.175781 76.140625 275.816406 76.433594 277.496094 76.515625 C 279.175781 76.601562 280.839844 76.480469 282.488281 76.148438 C 284.136719 75.816406 285.71875 75.285156 287.234375 74.558594 C 288.128906 74.101562 288.960938 73.558594 289.738281 72.925781 C 290.515625 72.292969 291.214844 71.585938 291.839844 70.804688 C 292.46875 70.023438 293.003906 69.183594 293.453125 68.289062 C 293.902344 67.394531 294.25 66.460938 294.5 65.492188 C 297.535156 54.363281 296.117188 43.480469 290.675781 34.785156 C 289.972656 38.03125 288.796875 41.097656 287.148438 43.984375 C 285.496094 46.867188 283.453125 49.4375 281.011719 51.691406 C 278.949219 53.554688 276.679688 55.121094 274.207031 56.394531 C 271.734375 57.664062 269.140625 58.601562 266.425781 59.195312 C 265.445312 59.402344 264.570312 59.828125 263.800781 60.46875 C 263.03125 61.113281 262.457031 61.898438 262.082031 62.828125 C 261.714844 63.726562 261.578125 64.660156 261.675781 65.625 C 261.773438 66.589844 262.089844 67.476562 262.628906 68.285156 C 264.03125 70.445312 265.824219 72.214844 268.007812 73.582031 Z M 268.007812 73.582031"/><path fill="#FFDE17" d="M 205.085938 219.980469 C 192.679688 235.960938 172.324219 245.410156 150.03125 245.410156 C 142.714844 245.410156 135.550781 244.367188 128.539062 242.277344 L 103.644531 267.203125 L 196.558594 267.203125 C 197.082031 267.203125 197.558594 267.347656 197.992188 267.636719 C 198.425781 267.925781 198.742188 268.3125 198.941406 268.792969 C 199.140625 269.277344 199.191406 269.773438 199.089844 270.285156 C 198.988281 270.796875 198.75 271.234375 198.382812 271.605469 L 138.949219 331.039062 L 258.511719 251.777344 L 222.667969 251.777344 C 222.148438 251.777344 221.667969 251.632812 221.234375 251.34375 C 220.800781 251.054688 220.484375 250.667969 220.285156 250.1875 C 220.085938 249.707031 220.039062 249.207031 220.140625 248.699219 C 220.242188 248.1875 220.476562 247.746094 220.84375 247.378906 L 231.214844 237 C 226.25 235.234375 221.558594 232.910156 217.144531 230.035156 C 212.726562 227.160156 208.707031 223.808594 205.085938 219.980469 Z M 205.085938 219.980469"/><path fill="#76919B" d="M 321.863281 130.660156 C 321.300781 130.644531 320.796875 130.464844 320.351562 130.117188 C 319.90625 129.773438 319.605469 129.328125 319.449219 128.785156 C 315.289062 114.316406 300.21875 104.203125 282.84375 104.203125 C 279.144531 104.179688 275.507812 104.640625 271.929688 105.582031 C 268.355469 106.523438 264.960938 107.910156 261.753906 109.75 C 261.050781 110.160156 260.316406 110.21875 259.554688 109.9375 C 258.789062 109.652344 258.277344 109.125 258.015625 108.355469 C 257.488281 106.828125 256.90625 105.324219 256.261719 103.839844 C 255.621094 102.359375 254.921875 100.902344 254.164062 99.476562 C 253.410156 98.046875 252.597656 96.652344 251.734375 95.285156 C 250.867188 93.921875 249.953125 92.59375 248.984375 91.296875 C 248.015625 90.003906 247 88.75 245.933594 87.539062 C 244.867188 86.324219 243.753906 85.152344 242.597656 84.023438 C 241.441406 82.898438 240.242188 81.816406 239 80.78125 C 237.757812 79.746094 236.480469 78.761719 235.160156 77.828125 C 233.84375 76.894531 232.492188 76.011719 231.101562 75.183594 C 229.714844 74.355469 228.300781 73.582031 226.851562 72.863281 C 225.40625 72.144531 223.933594 71.480469 222.433594 70.878906 C 220.9375 70.273438 219.414062 69.726562 217.875 69.242188 C 216.332031 68.757812 214.777344 68.332031 213.203125 67.96875 C 211.628906 67.601562 210.042969 67.300781 208.445312 67.058594 C 206.847656 66.816406 205.242188 66.640625 203.628906 66.523438 C 202.019531 66.40625 200.40625 66.355469 198.789062 66.363281 C 197.171875 66.375 195.558594 66.445312 193.949219 66.582031 C 192.339844 66.71875 190.738281 66.914062 189.144531 67.175781 C 187.546875 67.4375 185.964844 67.757812 184.398438 68.140625 C 182.828125 68.523438 181.273438 68.96875 179.738281 69.472656 C 178.203125 69.976562 176.691406 70.539062 175.199219 71.164062 C 173.710938 71.785156 172.246094 72.464844 170.804688 73.199219 C 169.367188 73.9375 167.960938 74.726562 166.582031 75.574219 C 165.207031 76.417969 163.867188 77.316406 162.558594 78.265625 C 161.253906 79.21875 159.984375 80.21875 158.753906 81.265625 C 157.527344 82.316406 156.339844 83.410156 155.195312 84.550781 C 154.054688 85.695312 152.957031 86.878906 151.90625 88.105469 C 150.855469 89.332031 149.851562 90.597656 148.898438 91.902344 C 147.945312 93.207031 147.046875 94.546875 146.199219 95.921875 C 145.351562 97.296875 144.554688 98.703125 143.816406 100.140625 C 143.078125 101.578125 142.398438 103.042969 141.773438 104.53125 C 141.148438 106.019531 140.582031 107.535156 140.074219 109.066406 C 140.015625 109.253906 139.933594 109.429688 139.832031 109.597656 C 139.730469 109.765625 139.609375 109.921875 139.472656 110.0625 C 139.335938 110.203125 139.183594 110.328125 139.019531 110.433594 C 138.855469 110.539062 138.679688 110.625 138.496094 110.691406 C 138.308594 110.757812 138.121094 110.804688 137.925781 110.824219 C 137.730469 110.847656 137.535156 110.847656 137.339844 110.828125 C 137.144531 110.804688 136.953125 110.761719 136.769531 110.699219 C 136.585938 110.632812 136.410156 110.546875 136.242188 110.441406 C 135.527344 109.988281 134.796875 109.554688 134.054688 109.144531 C 133.3125 108.734375 132.558594 108.34375 131.792969 107.972656 C 131.027344 107.605469 130.253906 107.257812 129.46875 106.933594 C 128.6875 106.609375 127.894531 106.308594 127.09375 106.027344 C 126.289062 105.75 125.480469 105.492188 124.664062 105.261719 C 123.851562 105.027344 123.027344 104.816406 122.199219 104.632812 C 121.371094 104.445312 120.539062 104.28125 119.703125 104.144531 C 118.863281 104.003906 118.023438 103.890625 117.179688 103.800781 C 116.335938 103.710938 115.492188 103.644531 114.644531 103.601562 C 113.796875 103.558594 112.945312 103.539062 112.097656 103.546875 C 111.25 103.550781 110.402344 103.582031 109.554688 103.636719 C 108.707031 103.691406 107.863281 103.769531 107.019531 103.871094 C 106.179688 103.972656 105.339844 104.097656 104.503906 104.25 C 103.667969 104.398438 102.839844 104.574219 102.011719 104.773438 C 101.1875 104.96875 100.367188 105.191406 99.554688 105.433594 C 98.742188 105.679688 97.9375 105.945312 97.140625 106.238281 C 96.34375 106.527344 95.554688 106.839844 94.773438 107.175781 C 93.996094 107.511719 93.226562 107.867188 92.464844 108.246094 C 91.707031 108.625 90.957031 109.027344 90.222656 109.449219 C 89.484375 109.871094 88.761719 110.3125 88.050781 110.777344 C 87.339844 111.238281 86.640625 111.722656 85.957031 112.226562 C 85.273438 112.730469 84.605469 113.25 83.953125 113.792969 C 83.300781 114.332031 82.660156 114.890625 82.039062 115.46875 C 81.417969 116.046875 80.8125 116.640625 80.222656 117.253906 C 79.636719 117.867188 79.066406 118.496094 78.515625 119.140625 C 77.960938 119.785156 77.429688 120.445312 76.914062 121.117188 C 76.398438 121.792969 75.90625 122.484375 75.429688 123.1875 C 74.953125 123.890625 74.5 124.605469 74.066406 125.335938 C 73.632812 126.0625 73.21875 126.804688 72.828125 127.558594 C 72.433594 128.308594 72.066406 129.074219 71.714844 129.847656 C 71.367188 130.621094 71.042969 131.402344 70.738281 132.195312 C 70.433594 132.988281 70.152344 133.789062 69.894531 134.597656 C 69.796875 134.90625 69.644531 135.1875 69.441406 135.4375 C 69.238281 135.691406 68.996094 135.894531 68.714844 136.058594 C 68.433594 136.21875 68.136719 136.320312 67.816406 136.371094 C 67.496094 136.417969 67.175781 136.40625 66.859375 136.335938 C 64.109375 135.710938 61.320312 135.398438 58.5 135.394531 C 57.261719 135.378906 56.027344 135.421875 54.796875 135.527344 C 53.5625 135.632812 52.335938 135.796875 51.121094 136.027344 C 49.90625 136.253906 48.703125 136.539062 47.515625 136.882812 C 46.328125 137.230469 45.160156 137.632812 44.011719 138.09375 C 42.863281 138.558594 41.742188 139.074219 40.644531 139.648438 C 39.546875 140.21875 38.480469 140.84375 37.449219 141.523438 C 36.414062 142.203125 35.414062 142.929688 34.453125 143.707031 C 33.488281 144.484375 32.566406 145.308594 31.6875 146.175781 C 30.804688 147.046875 29.96875 147.957031 29.179688 148.90625 C 28.390625 149.859375 27.648438 150.847656 26.953125 151.871094 C 26.261719 152.898438 25.621094 153.953125 25.035156 155.042969 C 24.445312 156.128906 23.914062 157.246094 23.4375 158.386719 C 22.957031 159.527344 22.539062 160.691406 22.175781 161.875 C 21.8125 163.054688 21.511719 164.253906 21.269531 165.46875 C 21.023438 166.679688 20.839844 167.902344 20.71875 169.132812 C 20.597656 170.363281 20.535156 171.597656 20.535156 172.835938 C 20.535156 174.074219 20.597656 175.304688 20.71875 176.539062 C 20.839844 177.769531 21.023438 178.992188 21.269531 180.203125 C 21.511719 181.417969 21.8125 182.613281 22.175781 183.796875 C 22.539062 184.980469 22.957031 186.140625 23.4375 187.285156 C 23.914062 188.425781 24.445312 189.539062 25.035156 190.628906 C 25.621094 191.71875 26.261719 192.773438 26.953125 193.796875 C 27.648438 194.824219 28.390625 195.8125 29.179688 196.765625 C 29.96875 197.714844 30.804688 198.625 31.6875 199.492188 C 32.566406 200.363281 33.488281 201.1875 34.453125 201.964844 C 35.414062 202.742188 36.414062 203.46875 37.449219 204.148438 C 38.480469 204.824219 39.546875 205.449219 40.644531 206.023438 C 41.742188 206.597656 42.863281 207.113281 44.011719 207.574219 C 45.160156 208.035156 46.328125 208.441406 47.515625 208.785156 C 48.703125 209.132812 49.90625 209.417969 51.121094 209.644531 C 52.335938 209.871094 53.5625 210.039062 54.796875 210.144531 C 56.027344 210.25 57.261719 210.292969 58.5 210.277344 C 61.058594 210.285156 63.59375 210.035156 66.101562 209.519531 C 68.609375 209.003906 71.039062 208.238281 73.386719 207.222656 C 75.734375 206.203125 77.957031 204.957031 80.046875 203.480469 C 82.136719 202.003906 84.054688 200.328125 85.796875 198.453125 C 86.308594 197.914062 86.933594 197.644531 87.679688 197.640625 C 87.894531 197.640625 88.109375 197.667969 88.320312 197.71875 C 88.773438 197.835938 89.167969 198.058594 89.5 198.390625 C 89.832031 198.71875 90.058594 199.113281 90.179688 199.566406 C 94.859375 217.367188 109.40625 231.210938 128.210938 237.308594 C 128.457031 237.351562 128.695312 237.425781 128.921875 237.535156 C 135.800781 239.671875 142.84375 240.730469 150.046875 240.71875 C 171.546875 240.71875 191.757812 230.8125 202.796875 214.875 C 202.910156 214.710938 203.042969 214.5625 203.1875 214.429688 C 203.335938 214.296875 203.496094 214.183594 203.671875 214.085938 C 203.84375 213.988281 204.027344 213.914062 204.21875 213.859375 C 204.410156 213.804688 204.605469 213.773438 204.804688 213.765625 C 205.003906 213.757812 205.199219 213.769531 205.394531 213.808594 C 205.589844 213.84375 205.777344 213.902344 205.960938 213.980469 C 206.140625 214.0625 206.3125 214.164062 206.472656 214.28125 C 206.628906 214.402344 206.773438 214.539062 206.902344 214.691406 C 218.421875 228.511719 237.070312 236.765625 256.753906 236.765625 C 284.742188 236.765625 309.1875 220.464844 316.1875 197.136719 C 316.269531 196.859375 316.394531 196.605469 316.5625 196.371094 C 316.730469 196.136719 316.933594 195.9375 317.167969 195.769531 C 317.402344 195.605469 317.65625 195.480469 317.933594 195.398438 C 318.210938 195.320312 318.492188 195.285156 318.78125 195.300781 C 319.378906 195.300781 320.027344 195.34375 320.714844 195.34375 C 341.5 195.34375 358.414062 180.828125 358.414062 162.984375 C 358.421875 145.378906 342.359375 131.171875 321.863281 130.660156 Z M 321.863281 130.660156"/><path fill="#9CAEB7" d="M 321.863281 130.203125 C 321.300781 130.1875 320.796875 130.007812 320.351562 129.664062 C 319.90625 129.320312 319.605469 128.878906 319.449219 128.335938 C 315.289062 113.859375 300.21875 103.746094 282.84375 103.746094 C 279.144531 103.726562 275.507812 104.1875 271.929688 105.128906 C 268.355469 106.066406 264.960938 107.457031 261.753906 109.296875 C 261.589844 109.390625 261.414062 109.46875 261.234375 109.523438 C 261.050781 109.582031 260.867188 109.617188 260.675781 109.636719 C 260.488281 109.652344 260.296875 109.644531 260.109375 109.621094 C 259.917969 109.59375 259.734375 109.546875 259.558594 109.480469 C 259.378906 109.417969 259.210938 109.332031 259.050781 109.226562 C 258.890625 109.125 258.742188 109.003906 258.609375 108.867188 C 258.476562 108.730469 258.359375 108.582031 258.257812 108.417969 C 258.160156 108.257812 258.078125 108.085938 258.015625 107.90625 C 257.488281 106.378906 256.90625 104.871094 256.265625 103.390625 C 255.621094 101.90625 254.921875 100.453125 254.167969 99.023438 C 253.410156 97.59375 252.601562 96.199219 251.738281 94.832031 C 250.871094 93.46875 249.957031 92.136719 248.988281 90.84375 C 248.019531 89.550781 247.003906 88.296875 245.9375 87.082031 C 244.871094 85.867188 243.757812 84.695312 242.601562 83.566406 C 241.445312 82.441406 240.246094 81.359375 239.003906 80.324219 C 237.761719 79.289062 236.484375 78.304688 235.164062 77.371094 C 233.847656 76.433594 232.496094 75.554688 231.109375 74.722656 C 229.722656 73.894531 228.304688 73.121094 226.855469 72.402344 C 225.410156 71.679688 223.9375 71.019531 222.4375 70.414062 C 220.9375 69.8125 219.417969 69.265625 217.878906 68.78125 C 216.335938 68.292969 214.777344 67.867188 213.203125 67.503906 C 211.628906 67.140625 210.042969 66.835938 208.445312 66.59375 C 206.847656 66.355469 205.242188 66.175781 203.632812 66.058594 C 202.019531 65.945312 200.40625 65.890625 198.789062 65.902344 C 197.171875 65.910156 195.558594 65.984375 193.949219 66.117188 C 192.339844 66.253906 190.738281 66.453125 189.140625 66.710938 C 187.546875 66.972656 185.964844 67.292969 184.394531 67.679688 C 182.824219 68.0625 181.273438 68.503906 179.738281 69.011719 C 178.203125 69.515625 176.6875 70.078125 175.195312 70.699219 C 173.707031 71.324219 172.242188 72.003906 170.800781 72.738281 C 169.363281 73.476562 167.957031 74.265625 166.578125 75.113281 C 165.203125 75.960938 163.859375 76.859375 162.554688 77.808594 C 161.246094 78.757812 159.980469 79.757812 158.75 80.808594 C 157.523438 81.859375 156.335938 82.953125 155.191406 84.097656 C 154.050781 85.238281 152.953125 86.421875 151.902344 87.648438 C 150.847656 88.878906 149.847656 90.144531 148.894531 91.449219 C 147.941406 92.753906 147.042969 94.09375 146.195312 95.46875 C 145.347656 96.847656 144.554688 98.253906 143.816406 99.691406 C 143.078125 101.128906 142.394531 102.589844 141.769531 104.082031 C 141.148438 105.570312 140.582031 107.085938 140.074219 108.617188 C 140.015625 108.804688 139.933594 108.984375 139.832031 109.152344 C 139.730469 109.320312 139.609375 109.472656 139.472656 109.613281 C 139.335938 109.753906 139.183594 109.878906 139.019531 109.984375 C 138.855469 110.089844 138.679688 110.175781 138.496094 110.242188 C 138.308594 110.308594 138.121094 110.355469 137.925781 110.378906 C 137.730469 110.398438 137.535156 110.402344 137.339844 110.378906 C 137.144531 110.355469 136.953125 110.3125 136.769531 110.25 C 136.585938 110.183594 136.410156 110.097656 136.242188 109.992188 C 135.527344 109.539062 134.796875 109.109375 134.054688 108.695312 C 133.3125 108.285156 132.558594 107.894531 131.792969 107.523438 C 131.03125 107.15625 130.253906 106.808594 129.472656 106.484375 C 128.6875 106.160156 127.894531 105.859375 127.09375 105.578125 C 126.292969 105.300781 125.484375 105.042969 124.667969 104.8125 C 123.851562 104.578125 123.03125 104.367188 122.203125 104.183594 C 121.375 103.996094 120.542969 103.832031 119.703125 103.695312 C 118.867188 103.554688 118.027344 103.441406 117.183594 103.351562 C 116.339844 103.257812 115.492188 103.191406 114.644531 103.148438 C 113.796875 103.105469 112.949219 103.089844 112.101562 103.09375 C 111.253906 103.101562 110.40625 103.128906 109.558594 103.183594 C 108.710938 103.238281 107.867188 103.316406 107.023438 103.417969 C 106.179688 103.519531 105.34375 103.648438 104.507812 103.796875 C 103.671875 103.949219 102.84375 104.121094 102.015625 104.320312 C 101.191406 104.515625 100.371094 104.738281 99.558594 104.980469 C 98.746094 105.226562 97.941406 105.492188 97.144531 105.78125 C 96.347656 106.074219 95.558594 106.386719 94.777344 106.722656 C 94 107.054688 93.230469 107.414062 92.46875 107.792969 C 91.710938 108.171875 90.964844 108.570312 90.226562 108.992188 C 89.488281 109.414062 88.765625 109.859375 88.054688 110.320312 C 87.34375 110.785156 86.648438 111.265625 85.960938 111.769531 C 85.277344 112.273438 84.609375 112.792969 83.957031 113.335938 C 83.304688 113.875 82.664062 114.433594 82.042969 115.011719 C 81.421875 115.589844 80.816406 116.183594 80.226562 116.796875 C 79.640625 117.40625 79.070312 118.035156 78.515625 118.679688 C 77.964844 119.324219 77.433594 119.984375 76.917969 120.660156 C 76.402344 121.332031 75.90625 122.023438 75.433594 122.726562 C 74.957031 123.429688 74.503906 124.144531 74.066406 124.875 C 73.632812 125.601562 73.21875 126.34375 72.828125 127.09375 C 72.4375 127.847656 72.066406 128.609375 71.71875 129.386719 C 71.367188 130.160156 71.042969 130.941406 70.738281 131.734375 C 70.433594 132.527344 70.152344 133.328125 69.894531 134.132812 C 69.796875 134.441406 69.644531 134.722656 69.441406 134.972656 C 69.234375 135.222656 68.992188 135.425781 68.714844 135.585938 C 68.433594 135.746094 68.132812 135.851562 67.8125 135.898438 C 67.492188 135.945312 67.175781 135.9375 66.859375 135.863281 C 64.109375 135.242188 61.320312 134.925781 58.5 134.925781 C 56.96875 134.925781 55.445312 135.019531 53.925781 135.207031 C 52.40625 135.394531 50.902344 135.675781 49.417969 136.046875 C 47.933594 136.417969 46.476562 136.878906 45.050781 137.429688 C 43.621094 137.980469 42.234375 138.617188 40.882812 139.335938 C 39.53125 140.058594 38.230469 140.859375 36.980469 141.738281 C 35.726562 142.617188 34.53125 143.570312 33.398438 144.597656 C 32.261719 145.625 31.195312 146.71875 30.191406 147.875 C 29.191406 149.03125 28.265625 150.246094 27.414062 151.519531 C 27.242188 152.832031 27.140625 154.152344 27.109375 155.480469 C 27.078125 156.808594 27.117188 158.132812 27.230469 159.453125 C 27.339844 160.773438 27.519531 162.085938 27.769531 163.390625 C 28.019531 164.695312 28.335938 165.980469 28.726562 167.25 C 29.113281 168.519531 29.566406 169.761719 30.085938 170.984375 C 30.605469 172.203125 31.1875 173.394531 31.832031 174.550781 C 32.480469 175.710938 33.183594 176.832031 33.949219 177.914062 C 34.71875 179 35.539062 180.039062 36.414062 181.035156 C 37.289062 182.03125 38.21875 182.976562 39.195312 183.875 C 40.171875 184.773438 41.195312 185.617188 42.261719 186.40625 C 43.328125 187.195312 44.433594 187.921875 45.578125 188.59375 C 46.722656 189.265625 47.898438 189.875 49.109375 190.417969 C 50.320312 190.964844 51.554688 191.445312 52.8125 191.859375 C 54.074219 192.273438 55.355469 192.617188 56.652344 192.894531 C 57.949219 193.175781 59.257812 193.382812 60.578125 193.519531 C 61.894531 193.660156 63.21875 193.726562 64.546875 193.726562 C 67.105469 193.734375 69.640625 193.484375 72.148438 192.96875 C 74.65625 192.457031 77.082031 191.691406 79.433594 190.675781 C 81.78125 189.65625 84 188.410156 86.09375 186.933594 C 88.183594 185.460938 90.101562 183.785156 91.84375 181.910156 C 92.355469 181.367188 92.980469 181.09375 93.726562 181.09375 C 93.941406 181.09375 94.152344 181.121094 94.359375 181.171875 C 94.8125 181.289062 95.207031 181.511719 95.542969 181.839844 C 95.875 182.171875 96.101562 182.5625 96.226562 183.015625 C 100.902344 200.820312 115.453125 214.667969 134.257812 220.757812 C 134.507812 220.792969 134.742188 220.871094 134.96875 220.984375 C 141.847656 223.117188 148.890625 224.175781 156.09375 224.160156 C 177.59375 224.160156 197.804688 214.261719 208.835938 198.320312 C 209.066406 197.988281 209.359375 197.726562 209.710938 197.53125 C 210.066406 197.339844 210.445312 197.234375 210.847656 197.214844 C 211.25 197.195312 211.632812 197.265625 212.003906 197.429688 C 212.371094 197.59375 212.683594 197.828125 212.941406 198.140625 C 224.46875 211.964844 243.117188 220.21875 262.792969 220.21875 C 290.789062 220.21875 315.226562 203.921875 322.234375 180.585938 C 322.316406 180.3125 322.441406 180.058594 322.609375 179.824219 C 322.777344 179.589844 322.980469 179.390625 323.214844 179.222656 C 323.449219 179.058594 323.703125 178.933594 323.980469 178.855469 C 324.257812 178.773438 324.539062 178.742188 324.824219 178.757812 C 325.417969 178.757812 326.074219 178.800781 326.761719 178.800781 C 339.988281 178.800781 351.640625 172.917969 358.371094 164.042969 C 358.371094 163.53125 358.414062 163.027344 358.414062 162.511719 C 358.421875 144.921875 342.359375 130.714844 321.863281 130.203125 Z M 321.863281 130.203125"/><path fill="#C8D2D6" d="M 320.496094 130.625 L 320.867188 129.960938 C 320.140625 129.640625 319.664062 129.097656 319.441406 128.335938 C 315.28125 113.859375 300.210938 103.746094 282.835938 103.746094 C 279.136719 103.726562 275.5 104.1875 271.925781 105.128906 C 268.347656 106.066406 264.957031 107.457031 261.746094 109.296875 C 261.582031 109.390625 261.410156 109.46875 261.226562 109.523438 C 261.046875 109.582031 260.859375 109.617188 260.667969 109.636719 C 260.480469 109.652344 260.289062 109.644531 260.101562 109.621094 C 259.914062 109.59375 259.726562 109.546875 259.550781 109.480469 C 259.371094 109.417969 259.203125 109.332031 259.042969 109.226562 C 258.882812 109.125 258.734375 109.003906 258.601562 108.867188 C 258.46875 108.730469 258.351562 108.582031 258.25 108.417969 C 258.152344 108.257812 258.070312 108.085938 258.007812 107.90625 C 257.484375 106.378906 256.898438 104.871094 256.257812 103.390625 C 255.613281 101.90625 254.914062 100.453125 254.160156 99.023438 C 253.402344 97.59375 252.59375 96.199219 251.730469 94.832031 C 250.863281 93.46875 249.949219 92.136719 248.980469 90.84375 C 248.011719 89.550781 246.996094 88.296875 245.929688 87.082031 C 244.863281 85.867188 243.753906 84.695312 242.59375 83.566406 C 241.4375 82.441406 240.238281 81.359375 238.996094 80.324219 C 237.757812 79.289062 236.476562 78.304688 235.15625 77.371094 C 233.839844 76.433594 232.488281 75.554688 231.101562 74.722656 C 229.714844 73.894531 228.296875 73.121094 226.847656 72.402344 C 225.402344 71.679688 223.929688 71.019531 222.429688 70.414062 C 220.933594 69.8125 219.410156 69.265625 217.871094 68.78125 C 216.328125 68.292969 214.769531 67.867188 213.195312 67.503906 C 211.621094 67.140625 210.035156 66.835938 208.4375 66.59375 C 206.839844 66.355469 205.234375 66.175781 203.625 66.058594 C 202.011719 65.945312 200.398438 65.890625 198.78125 65.902344 C 197.164062 65.910156 195.550781 65.984375 193.941406 66.117188 C 192.332031 66.253906 190.730469 66.453125 189.132812 66.710938 C 187.539062 66.972656 185.957031 67.292969 184.386719 67.679688 C 182.816406 68.0625 181.265625 68.503906 179.730469 69.011719 C 178.195312 69.515625 176.679688 70.078125 175.191406 70.699219 C 173.699219 71.324219 172.234375 72.003906 170.796875 72.738281 C 169.355469 73.476562 167.949219 74.265625 166.570312 75.113281 C 165.195312 75.960938 163.855469 76.859375 162.546875 77.808594 C 161.242188 78.757812 159.972656 79.757812 158.742188 80.808594 C 157.515625 81.859375 156.328125 82.953125 155.183594 84.097656 C 154.042969 85.238281 152.945312 86.421875 151.894531 87.648438 C 150.84375 88.878906 149.839844 90.144531 148.886719 91.449219 C 147.9375 92.753906 147.035156 94.09375 146.1875 95.46875 C 145.339844 96.847656 144.546875 98.253906 143.808594 99.691406 C 143.070312 101.128906 142.386719 102.589844 141.765625 104.082031 C 141.140625 105.570312 140.574219 107.085938 140.066406 108.617188 C 140.066406 108.617188 162.703125 67.769531 205.804688 76.53125 C 236.285156 82.71875 248.992188 104.304688 253.820312 116.410156 C 254.015625 116.910156 254.261719 117.386719 254.550781 117.835938 C 254.84375 118.289062 255.175781 118.707031 255.550781 119.089844 C 255.925781 119.476562 256.335938 119.816406 256.78125 120.121094 C 257.226562 120.421875 257.695312 120.679688 258.191406 120.886719 C 258.683594 121.09375 259.195312 121.253906 259.722656 121.359375 C 260.25 121.464844 260.78125 121.519531 261.316406 121.515625 C 261.855469 121.515625 262.386719 121.464844 262.914062 121.355469 C 263.441406 121.25 263.949219 121.089844 264.445312 120.882812 C 277.890625 115.171875 305.113281 107.578125 320.496094 130.625 Z M 320.496094 130.625"/><path fill="#FFF" d="M 138.949219 331.023438 L 245.9375 255.082031 L 222.667969 251.777344 L 258.511719 251.777344 Z M 138.949219 331.023438"/><path fill="#DDB907" d="M 196.558594 267.1875 L 115.527344 262.886719 L 133.707031 243.640625 L 128.539062 242.300781 L 103.652344 267.1875 Z M 196.558594 267.1875"/><path fill="#FFF" d="M 290.667969 34.785156 C 290.667969 34.785156 291.824219 51.675781 272.863281 60.109375 C 258.285156 66.597656 269.636719 74.5 269.636719 74.5 C 269.636719 74.5 260.242188 70.121094 260.613281 69.324219 C 260.984375 68.527344 259.054688 64.660156 259.3125 63.378906 C 259.566406 62.09375 261.910156 57.992188 262.28125 57.246094 C 262.652344 56.5 273.988281 53.160156 275.476562 52.417969 C 276.964844 51.675781 282.722656 43.5 282.722656 43.5 C 282.722656 43.5 287.363281 39.042969 287.550781 38.117188 C 287.734375 37.191406 290.667969 34.785156 290.667969 34.785156 Z M 290.667969 34.785156"/><path fill="#FFF" d="M 105.105469 34.785156 C 105.105469 34.785156 103.953125 51.675781 122.910156 60.109375 C 137.484375 66.597656 126.128906 74.5 126.128906 74.5 C 126.128906 74.5 135.566406 70.121094 135.167969 69.324219 C 134.769531 68.527344 136.726562 64.660156 136.472656 63.378906 C 136.214844 62.09375 133.871094 57.992188 133.5 57.246094 C 133.132812 56.5 121.792969 53.160156 120.304688 52.417969 C 118.816406 51.675781 113.0625 43.5 113.0625 43.5 C 113.0625 43.5 108.417969 39.042969 108.234375 38.117188 C 108.046875 37.191406 105.105469 34.785156 105.105469 34.785156 Z M 105.105469 34.785156"/><g clip-path="url(#a)"><path fill="#B29502" d="M 118.949219 350.59375 C 118.296875 350.59375 117.699219 350.414062 117.160156 350.050781 C 116.617188 349.691406 116.21875 349.207031 115.96875 348.605469 C 115.71875 348.003906 115.65625 347.382812 115.785156 346.742188 C 115.910156 346.101562 116.203125 345.550781 116.664062 345.089844 L 188.773438 272.992188 L 97.421875 272.992188 C 96.769531 272.996094 96.167969 272.816406 95.625 272.453125 C 95.082031 272.089844 94.683594 271.609375 94.433594 271.003906 C 94.183594 270.402344 94.125 269.78125 94.253906 269.140625 C 94.382812 268.5 94.679688 267.949219 95.140625 267.488281 L 125.511719 237.121094 C 125.808594 236.796875 126.15625 236.542969 126.558594 236.363281 C 126.957031 236.179688 127.378906 236.085938 127.820312 236.074219 C 128.257812 236.066406 128.683594 236.140625 129.09375 236.304688 C 129.5 236.46875 129.859375 236.707031 130.171875 237.019531 C 130.484375 237.332031 130.722656 237.691406 130.886719 238.097656 C 131.050781 238.507812 131.125 238.933594 131.117188 239.371094 C 131.105469 239.8125 131.011719 240.234375 130.828125 240.632812 C 130.648438 241.035156 130.394531 241.382812 130.070312 241.679688 L 105.207031 266.539062 L 196.558594 266.539062 C 197.210938 266.539062 197.8125 266.71875 198.355469 267.082031 C 198.898438 267.441406 199.296875 267.925781 199.546875 268.527344 C 199.796875 269.132812 199.855469 269.753906 199.726562 270.394531 C 199.597656 271.035156 199.300781 271.585938 198.839844 272.046875 L 143.949219 326.9375 L 256.375 252.425781 L 222.667969 252.425781 C 222.015625 252.425781 221.421875 252.242188 220.878906 251.882812 C 220.335938 251.519531 219.941406 251.035156 219.691406 250.433594 C 219.441406 249.832031 219.382812 249.210938 219.507812 248.574219 C 219.636719 247.933594 219.929688 247.382812 220.390625 246.921875 L 233.65625 233.65625 C 233.953125 233.328125 234.304688 233.078125 234.703125 232.894531 C 235.105469 232.710938 235.527344 232.617188 235.964844 232.605469 C 236.40625 232.597656 236.832031 232.675781 237.238281 232.835938 C 237.648438 233 238.007812 233.238281 238.320312 233.550781 C 238.632812 233.863281 238.867188 234.222656 239.03125 234.628906 C 239.195312 235.039062 239.273438 235.464844 239.265625 235.902344 C 239.253906 236.34375 239.160156 236.765625 238.976562 237.164062 C 238.792969 237.566406 238.539062 237.914062 238.214844 238.210938 L 230.453125 245.976562 L 267.082031 245.976562 C 267.429688 245.972656 267.765625 246.027344 268.09375 246.136719 C 268.425781 246.246094 268.730469 246.402344 269.007812 246.609375 C 269.285156 246.816406 269.523438 247.0625 269.722656 247.347656 C 269.921875 247.632812 270.074219 247.9375 270.171875 248.269531 C 270.273438 248.601562 270.316406 248.941406 270.308594 249.289062 C 270.300781 249.636719 270.234375 249.972656 270.117188 250.300781 C 270 250.625 269.832031 250.925781 269.617188 251.195312 C 269.402344 251.46875 269.152344 251.703125 268.863281 251.890625 L 120.722656 350.058594 C 120.1875 350.414062 119.59375 350.59375 118.949219 350.59375 Z M 118.949219 350.59375"/></g><g clip-path="url(#b)"><path fill="#37545B" d="M 150.03125 246.074219 C 134.804688 246.074219 119.882812 241.503906 108.011719 233.207031 C 97.804688 226.050781 90.207031 216.394531 86.140625 205.609375 C 85.449219 206.1875 84.738281 206.738281 84.011719 207.269531 C 83.285156 207.796875 82.546875 208.304688 81.789062 208.789062 C 81.03125 209.273438 80.257812 209.734375 79.46875 210.167969 C 78.683594 210.605469 77.882812 211.015625 77.074219 211.402344 C 76.261719 211.789062 75.4375 212.148438 74.601562 212.480469 C 73.765625 212.816406 72.921875 213.125 72.070312 213.40625 C 71.214844 213.6875 70.355469 213.945312 69.484375 214.171875 C 68.613281 214.398438 67.738281 214.601562 66.855469 214.773438 C 65.972656 214.949219 65.085938 215.09375 64.195312 215.210938 C 63.304688 215.328125 62.410156 215.417969 61.511719 215.480469 C 60.613281 215.542969 59.71875 215.578125 58.816406 215.585938 C 57.917969 215.589844 57.019531 215.570312 56.121094 215.519531 C 55.222656 215.46875 54.328125 215.390625 53.4375 215.285156 C 52.542969 215.179688 51.652344 215.046875 50.769531 214.886719 C 49.886719 214.722656 49.007812 214.535156 48.132812 214.320312 C 47.261719 214.105469 46.394531 213.859375 45.539062 213.589844 C 44.679688 213.320312 43.832031 213.023438 42.992188 212.703125 C 42.152344 212.378906 41.324219 212.03125 40.507812 211.65625 C 39.6875 211.28125 38.882812 210.878906 38.089844 210.457031 C 37.300781 210.03125 36.519531 209.582031 35.757812 209.109375 C 34.992188 208.636719 34.242188 208.136719 33.507812 207.617188 C 32.777344 207.097656 32.058594 206.554688 31.359375 205.992188 C 30.660156 205.425781 29.980469 204.839844 29.316406 204.230469 C 28.652344 203.625 28.007812 202.996094 27.386719 202.351562 C 26.761719 201.703125 26.160156 201.035156 25.574219 200.351562 C 24.992188 199.664062 24.433594 198.964844 23.894531 198.242188 C 23.355469 197.523438 22.839844 196.785156 22.347656 196.035156 C 21.855469 195.28125 21.386719 194.515625 20.941406 193.734375 C 20.5 192.953125 20.078125 192.15625 19.683594 191.351562 C 19.289062 190.542969 18.917969 189.722656 18.574219 188.890625 C 18.230469 188.0625 17.914062 187.21875 17.621094 186.371094 C 17.332031 185.519531 17.066406 184.660156 16.828125 183.792969 C 16.589844 182.925781 16.378906 182.050781 16.195312 181.171875 C 16.011719 180.292969 15.855469 179.40625 15.730469 178.515625 C 15.601562 177.628906 15.5 176.734375 15.429688 175.835938 C 15.355469 174.941406 15.3125 174.042969 15.296875 173.144531 C 15.277344 172.246094 15.289062 171.347656 15.328125 170.449219 C 15.371094 169.550781 15.4375 168.65625 15.53125 167.761719 C 15.628906 166.867188 15.753906 165.976562 15.902344 165.089844 C 16.054688 164.203125 16.234375 163.324219 16.441406 162.449219 C 16.644531 161.574219 16.878906 160.703125 17.140625 159.84375 C 17.398438 158.984375 17.6875 158.132812 18 157.289062 C 18.3125 156.445312 18.652344 155.613281 19.019531 154.792969 C 19.382812 153.972656 19.773438 153.160156 20.191406 152.363281 C 20.605469 151.566406 21.046875 150.785156 21.511719 150.015625 C 21.976562 149.246094 22.464844 148.488281 22.976562 147.75 C 23.488281 147.011719 24.023438 146.289062 24.582031 145.582031 C 25.136719 144.878906 25.714844 144.191406 26.316406 143.519531 C 26.914062 142.851562 27.535156 142.199219 28.175781 141.570312 C 28.816406 140.9375 29.476562 140.328125 30.15625 139.738281 C 30.832031 139.148438 31.53125 138.578125 32.246094 138.03125 C 32.957031 137.484375 33.6875 136.960938 34.4375 136.460938 C 35.183594 135.960938 35.945312 135.484375 36.71875 135.03125 C 37.496094 134.578125 38.285156 134.148438 39.089844 133.742188 C 39.894531 133.339844 40.707031 132.960938 41.535156 132.609375 C 42.363281 132.253906 43.199219 131.925781 44.046875 131.625 C 44.894531 131.324219 45.75 131.050781 46.613281 130.804688 C 47.480469 130.554688 48.351562 130.335938 49.230469 130.144531 C 50.105469 129.949219 50.992188 129.785156 51.878906 129.644531 C 52.769531 129.507812 53.660156 129.398438 54.554688 129.316406 C 55.449219 129.234375 56.347656 129.179688 57.246094 129.152344 C 58.144531 129.125 59.042969 129.125 59.941406 129.15625 C 60.839844 129.1875 61.738281 129.242188 62.632812 129.328125 C 63.527344 129.414062 64.421875 129.527344 65.308594 129.667969 C 65.625 128.839844 65.964844 128.019531 66.328125 127.210938 C 66.6875 126.398438 67.070312 125.597656 67.476562 124.808594 C 67.878906 124.019531 68.304688 123.238281 68.75 122.472656 C 69.191406 121.703125 69.65625 120.949219 70.140625 120.203125 C 70.628906 119.460938 71.132812 118.730469 71.652344 118.011719 C 72.175781 117.296875 72.71875 116.59375 73.28125 115.90625 C 73.839844 115.21875 74.417969 114.542969 75.015625 113.886719 C 75.609375 113.226562 76.222656 112.585938 76.851562 111.960938 C 77.480469 111.335938 78.128906 110.726562 78.789062 110.136719 C 79.453125 109.542969 80.128906 108.96875 80.820312 108.414062 C 81.511719 107.859375 82.21875 107.320312 82.941406 106.804688 C 83.660156 106.285156 84.394531 105.785156 85.140625 105.308594 C 85.886719 104.828125 86.644531 104.367188 87.417969 103.925781 C 88.1875 103.488281 88.96875 103.070312 89.765625 102.671875 C 90.558594 102.273438 91.359375 101.894531 92.171875 101.539062 C 92.988281 101.183594 93.808594 100.847656 94.640625 100.535156 C 95.46875 100.222656 96.308594 99.933594 97.15625 99.664062 C 98 99.398438 98.851562 99.152344 99.710938 98.925781 C 100.570312 98.703125 101.433594 98.503906 102.304688 98.324219 C 103.175781 98.148438 104.046875 97.992188 104.925781 97.863281 C 105.804688 97.730469 106.683594 97.621094 107.570312 97.535156 C 108.453125 97.453125 109.335938 97.390625 110.222656 97.351562 C 111.109375 97.3125 111.996094 97.296875 112.886719 97.304688 C 113.773438 97.316406 114.660156 97.347656 115.546875 97.402344 C 116.429688 97.457031 117.316406 97.535156 118.195312 97.636719 C 119.078125 97.738281 119.957031 97.863281 120.832031 98.011719 C 121.707031 98.160156 122.578125 98.332031 123.445312 98.527344 C 124.3125 98.71875 125.171875 98.9375 126.027344 99.175781 C 126.878906 99.414062 127.726562 99.679688 128.570312 99.960938 C 129.410156 100.246094 130.242188 100.550781 131.066406 100.882812 C 131.890625 101.210938 132.707031 101.558594 133.515625 101.929688 C 134.320312 102.300781 135.117188 102.695312 135.902344 103.105469 C 136.523438 101.539062 137.199219 99.996094 137.933594 98.476562 C 138.667969 96.960938 139.460938 95.472656 140.304688 94.011719 C 141.152344 92.554688 142.050781 91.128906 143 89.734375 C 143.953125 88.34375 144.953125 86.988281 146.007812 85.671875 C 147.058594 84.355469 148.160156 83.078125 149.304688 81.839844 C 150.453125 80.605469 151.644531 79.414062 152.882812 78.265625 C 154.117188 77.117188 155.394531 76.019531 156.710938 74.964844 C 158.03125 73.914062 159.386719 72.914062 160.777344 71.960938 C 162.167969 71.007812 163.59375 70.109375 165.054688 69.265625 C 166.511719 68.417969 168 67.628906 169.519531 66.894531 C 171.039062 66.160156 172.582031 65.480469 174.148438 64.863281 C 175.71875 64.242188 177.304688 63.679688 178.917969 63.179688 C 180.527344 62.675781 182.152344 62.234375 183.796875 61.855469 C 185.4375 61.472656 187.09375 61.152344 188.761719 60.894531 C 190.425781 60.636719 192.101562 60.441406 193.78125 60.308594 C 195.460938 60.175781 197.148438 60.101562 198.832031 60.09375 C 200.519531 60.085938 202.203125 60.140625 203.886719 60.257812 C 205.570312 60.375 207.246094 60.554688 208.914062 60.792969 C 210.582031 61.035156 212.242188 61.339844 213.886719 61.703125 C 215.535156 62.070312 217.164062 62.496094 218.777344 62.980469 C 220.394531 63.464844 221.988281 64.011719 223.5625 64.617188 C 225.136719 65.222656 226.6875 65.882812 228.210938 66.601562 C 229.738281 67.324219 231.234375 68.097656 232.699219 68.929688 C 234.167969 69.761719 235.601562 70.644531 237.003906 71.582031 C 238.40625 72.519531 239.769531 73.507812 241.097656 74.546875 C 242.425781 75.585938 243.714844 76.675781 244.960938 77.808594 C 246.210938 78.945312 247.414062 80.125 248.574219 81.347656 C 249.734375 82.574219 250.84375 83.839844 251.910156 85.144531 C 252.976562 86.453125 253.992188 87.796875 254.957031 89.179688 C 255.921875 90.5625 256.835938 91.980469 257.695312 93.429688 C 258.554688 94.882812 259.359375 96.363281 260.109375 97.871094 C 260.859375 99.382812 261.550781 100.917969 262.1875 102.480469 C 268.730469 99.410156 275.613281 97.886719 282.84375 97.914062 C 301.929688 97.914062 318.617188 108.726562 324.304688 124.476562 C 326.824219 124.632812 329.3125 124.992188 331.769531 125.558594 C 334.226562 126.121094 336.621094 126.882812 338.957031 127.839844 C 341.289062 128.800781 343.527344 129.941406 345.671875 131.265625 C 347.816406 132.59375 349.839844 134.085938 351.738281 135.742188 C 359.796875 142.949219 364.226562 152.449219 364.226562 162.535156 C 364.226562 183.5 344.851562 200.570312 320.996094 200.699219 C 312.382812 225.207031 286.359375 242.121094 256.761719 242.121094 C 236.820312 242.121094 217.832031 234.289062 205.132812 220.992188 C 192.585938 236.765625 172.273438 246.074219 150.03125 246.074219 Z M 87.679688 196.539062 C 87.949219 196.539062 88.214844 196.574219 88.476562 196.636719 C 89.042969 196.785156 89.535156 197.0625 89.953125 197.476562 C 90.367188 197.890625 90.648438 198.378906 90.796875 198.945312 C 97 222.515625 121.914062 239.621094 150.03125 239.621094 C 171.324219 239.621094 191.339844 229.832031 202.25 214.058594 C 202.390625 213.851562 202.554688 213.667969 202.738281 213.5 C 202.921875 213.335938 203.125 213.191406 203.339844 213.070312 C 203.558594 212.953125 203.789062 212.859375 204.027344 212.789062 C 204.265625 212.722656 204.507812 212.683594 204.757812 212.671875 C 205.003906 212.664062 205.25 212.679688 205.496094 212.726562 C 205.738281 212.769531 205.976562 212.84375 206.203125 212.945312 C 206.429688 213.042969 206.644531 213.167969 206.839844 213.320312 C 207.039062 213.46875 207.21875 213.636719 207.378906 213.828125 C 218.773438 227.507812 237.238281 235.671875 256.761719 235.671875 C 284.464844 235.671875 308.652344 219.5625 315.574219 196.503906 C 315.675781 196.160156 315.835938 195.839844 316.042969 195.546875 C 316.253906 195.253906 316.503906 195.003906 316.800781 194.796875 C 317.09375 194.589844 317.414062 194.433594 317.757812 194.335938 C 318.101562 194.234375 318.457031 194.191406 318.816406 194.210938 C 319.398438 194.210938 320.039062 194.253906 320.722656 194.253906 C 341.148438 194.253906 357.757812 180.011719 357.757812 162.535156 C 357.757812 145.273438 341.976562 131.355469 321.835938 130.84375 C 321.492188 130.835938 321.15625 130.773438 320.835938 130.660156 C 320.511719 130.546875 320.214844 130.382812 319.941406 130.171875 C 319.667969 129.960938 319.4375 129.714844 319.246094 129.429688 C 319.050781 129.144531 318.910156 128.839844 318.816406 128.507812 C 314.734375 114.316406 299.933594 104.394531 282.828125 104.394531 C 279.1875 104.375 275.605469 104.824219 272.082031 105.75 C 268.5625 106.675781 265.21875 108.042969 262.058594 109.851562 C 261.855469 109.972656 261.636719 110.066406 261.410156 110.136719 C 261.183594 110.210938 260.949219 110.257812 260.714844 110.277344 C 260.476562 110.296875 260.238281 110.289062 260.003906 110.257812 C 259.765625 110.226562 259.535156 110.167969 259.3125 110.085938 C 259.089844 110.003906 258.878906 109.894531 258.679688 109.765625 C 258.480469 109.636719 258.296875 109.484375 258.128906 109.316406 C 257.964844 109.144531 257.816406 108.957031 257.691406 108.753906 C 257.566406 108.550781 257.464844 108.339844 257.386719 108.113281 C 256.867188 106.601562 256.289062 105.113281 255.652344 103.644531 C 255.019531 102.175781 254.324219 100.738281 253.578125 99.324219 C 252.828125 97.910156 252.027344 96.53125 251.171875 95.179688 C 250.316406 93.828125 249.410156 92.511719 248.449219 91.234375 C 247.492188 89.953125 246.484375 88.710938 245.429688 87.511719 C 244.375 86.308594 243.277344 85.148438 242.128906 84.035156 C 240.984375 82.917969 239.796875 81.847656 238.570312 80.824219 C 237.339844 79.800781 236.074219 78.828125 234.769531 77.902344 C 233.464844 76.976562 232.128906 76.105469 230.753906 75.285156 C 229.382812 74.464844 227.980469 73.699219 226.546875 72.988281 C 225.117188 72.277344 223.660156 71.621094 222.175781 71.023438 C 220.691406 70.425781 219.1875 69.886719 217.664062 69.40625 C 216.136719 68.925781 214.597656 68.503906 213.039062 68.144531 C 211.480469 67.78125 209.910156 67.484375 208.332031 67.246094 C 206.75 67.007812 205.160156 66.832031 203.566406 66.714844 C 201.972656 66.601562 200.375 66.546875 198.773438 66.558594 C 197.175781 66.566406 195.578125 66.640625 193.984375 66.773438 C 192.394531 66.910156 190.808594 67.105469 189.230469 67.363281 C 187.652344 67.621094 186.085938 67.9375 184.53125 68.316406 C 182.976562 68.695312 181.441406 69.136719 179.921875 69.636719 C 178.402344 70.136719 176.90625 70.691406 175.429688 71.308594 C 173.953125 71.925781 172.503906 72.597656 171.082031 73.324219 C 169.660156 74.054688 168.265625 74.835938 166.902344 75.675781 C 165.542969 76.511719 164.214844 77.402344 162.921875 78.339844 C 161.628906 79.28125 160.371094 80.269531 159.15625 81.308594 C 157.941406 82.347656 156.765625 83.433594 155.636719 84.5625 C 154.503906 85.691406 153.417969 86.863281 152.378906 88.078125 C 151.335938 89.292969 150.347656 90.546875 149.402344 91.835938 C 148.460938 93.128906 147.570312 94.457031 146.730469 95.816406 C 145.890625 97.175781 145.105469 98.570312 144.375 99.992188 C 143.644531 101.414062 142.96875 102.863281 142.351562 104.335938 C 141.734375 105.8125 141.175781 107.308594 140.671875 108.824219 C 140.597656 109.058594 140.496094 109.28125 140.367188 109.488281 C 140.238281 109.699219 140.089844 109.894531 139.917969 110.070312 C 139.746094 110.246094 139.558594 110.398438 139.351562 110.53125 C 139.144531 110.664062 138.925781 110.773438 138.695312 110.855469 C 138.464844 110.9375 138.226562 110.992188 137.984375 111.023438 C 137.738281 111.050781 137.496094 111.050781 137.25 111.023438 C 137.007812 110.996094 136.769531 110.941406 136.539062 110.859375 C 136.308594 110.78125 136.085938 110.671875 135.878906 110.542969 C 135.171875 110.09375 134.453125 109.667969 133.722656 109.261719 C 132.992188 108.855469 132.25 108.472656 131.496094 108.109375 C 130.742188 107.746094 129.980469 107.402344 129.207031 107.085938 C 128.433594 106.765625 127.652344 106.46875 126.863281 106.191406 C 126.074219 105.917969 125.277344 105.664062 124.472656 105.433594 C 123.667969 105.203125 122.859375 104.996094 122.042969 104.8125 C 121.226562 104.628906 120.40625 104.46875 119.582031 104.332031 C 118.753906 104.195312 117.925781 104.082031 117.09375 103.992188 C 116.265625 103.902344 115.429688 103.839844 114.59375 103.796875 C 113.757812 103.753906 112.925781 103.734375 112.085938 103.742188 C 111.25 103.746094 110.414062 103.777344 109.582031 103.832031 C 108.746094 103.882812 107.914062 103.960938 107.082031 104.0625 C 106.253906 104.164062 105.425781 104.285156 104.605469 104.433594 C 103.78125 104.582031 102.960938 104.753906 102.148438 104.949219 C 101.335938 105.144531 100.527344 105.359375 99.726562 105.601562 C 98.925781 105.84375 98.132812 106.105469 97.347656 106.390625 C 96.5625 106.679688 95.785156 106.984375 95.015625 107.316406 C 94.246094 107.648438 93.488281 108 92.742188 108.371094 C 91.992188 108.746094 91.253906 109.140625 90.53125 109.554688 C 89.804688 109.972656 89.089844 110.40625 88.390625 110.863281 C 87.6875 111.320312 87 111.796875 86.328125 112.292969 C 85.652344 112.789062 84.996094 113.300781 84.351562 113.835938 C 83.707031 114.367188 83.078125 114.917969 82.464844 115.488281 C 81.851562 116.058594 81.253906 116.644531 80.675781 117.246094 C 80.097656 117.847656 79.535156 118.46875 78.992188 119.101562 C 78.445312 119.738281 77.921875 120.386719 77.414062 121.054688 C 76.90625 121.71875 76.417969 122.398438 75.949219 123.089844 C 75.480469 123.78125 75.035156 124.488281 74.605469 125.207031 C 74.175781 125.925781 73.769531 126.65625 73.382812 127.398438 C 72.996094 128.136719 72.632812 128.890625 72.289062 129.652344 C 71.945312 130.414062 71.625 131.1875 71.324219 131.96875 C 71.023438 132.75 70.746094 133.539062 70.492188 134.332031 C 70.367188 134.714844 70.175781 135.0625 69.921875 135.371094 C 69.664062 135.683594 69.363281 135.9375 69.011719 136.132812 C 68.660156 136.332031 68.289062 136.460938 67.890625 136.519531 C 67.492188 136.574219 67.097656 136.558594 66.703125 136.46875 C 65.445312 136.175781 64.171875 135.953125 62.886719 135.792969 C 61.601562 135.636719 60.3125 135.542969 59.019531 135.523438 C 57.726562 135.5 56.433594 135.542969 55.144531 135.660156 C 53.855469 135.773438 52.578125 135.953125 51.308594 136.203125 C 50.039062 136.449219 48.785156 136.765625 47.546875 137.144531 C 46.308594 137.527344 45.097656 137.972656 43.90625 138.480469 C 42.71875 138.988281 41.558594 139.558594 40.429688 140.191406 C 39.296875 140.820312 38.207031 141.511719 37.148438 142.257812 C 36.089844 143.003906 35.078125 143.804688 34.105469 144.65625 C 33.132812 145.511719 32.207031 146.414062 31.328125 147.363281 C 30.453125 148.316406 29.625 149.308594 28.855469 150.347656 C 28.082031 151.386719 27.367188 152.460938 26.707031 153.574219 C 26.046875 154.691406 25.449219 155.835938 24.910156 157.011719 C 24.375 158.1875 23.898438 159.390625 23.488281 160.617188 C 23.078125 161.84375 22.730469 163.089844 22.449219 164.351562 C 22.171875 165.617188 21.957031 166.890625 21.8125 168.175781 C 21.667969 169.460938 21.589844 170.75 21.582031 172.042969 C 21.570312 173.339844 21.628906 174.628906 21.757812 175.917969 C 21.882812 177.203125 22.078125 178.484375 22.339844 179.75 C 22.601562 181.015625 22.929688 182.265625 23.320312 183.5 C 23.714844 184.730469 24.171875 185.941406 24.691406 187.125 C 25.214844 188.308594 25.796875 189.464844 26.4375 190.585938 C 27.082031 191.710938 27.78125 192.796875 28.539062 193.84375 C 29.296875 194.894531 30.105469 195.902344 30.96875 196.863281 C 31.832031 197.828125 32.746094 198.742188 33.703125 199.609375 C 34.664062 200.480469 35.667969 201.292969 36.714844 202.054688 C 37.761719 202.816406 38.84375 203.523438 39.964844 204.167969 C 41.085938 204.816406 42.234375 205.402344 43.417969 205.929688 C 44.601562 206.457031 45.804688 206.917969 47.039062 207.316406 C 48.269531 207.714844 49.515625 208.046875 50.785156 208.316406 C 52.050781 208.582031 53.328125 208.78125 54.613281 208.914062 C 55.902344 209.046875 57.191406 209.113281 58.484375 209.109375 C 61 209.125 63.488281 208.882812 65.953125 208.382812 C 68.417969 207.882812 70.804688 207.136719 73.117188 206.140625 C 75.425781 205.148438 77.609375 203.925781 79.667969 202.480469 C 81.722656 201.035156 83.609375 199.394531 85.328125 197.558594 C 85.964844 196.878906 86.75 196.539062 87.679688 196.539062 Z M 87.679688 196.539062"/></g><g clip-path="url(#c)"><path fill="#B29502" d="M 278.5625 82.335938 C 276.15625 82.34375 273.792969 82.023438 271.472656 81.375 C 269.15625 80.722656 266.972656 79.765625 264.921875 78.503906 C 262.019531 76.683594 259.632812 74.339844 257.765625 71.46875 C 257.238281 70.679688 256.8125 69.839844 256.492188 68.945312 C 256.171875 68.054688 255.964844 67.136719 255.871094 66.195312 C 255.777344 65.25 255.796875 64.308594 255.933594 63.371094 C 256.074219 62.433594 256.320312 61.527344 256.683594 60.648438 C 257.046875 59.757812 257.511719 58.921875 258.078125 58.144531 C 258.648438 57.367188 259.296875 56.667969 260.035156 56.046875 C 260.773438 55.425781 261.574219 54.902344 262.4375 54.476562 C 263.300781 54.050781 264.203125 53.734375 265.144531 53.527344 C 267.367188 53.042969 269.488281 52.28125 271.511719 51.242188 C 273.535156 50.203125 275.390625 48.921875 277.082031 47.398438 C 278.414062 46.167969 279.605469 44.8125 280.660156 43.335938 C 281.714844 41.863281 282.605469 40.292969 283.335938 38.632812 C 284.066406 36.972656 284.617188 35.253906 284.992188 33.480469 C 285.367188 31.707031 285.558594 29.910156 285.5625 28.097656 C 285.5625 27.773438 285.609375 27.453125 285.703125 27.140625 C 285.796875 26.828125 285.9375 26.539062 286.121094 26.269531 C 286.304688 26 286.523438 25.761719 286.777344 25.558594 C 287.035156 25.355469 287.3125 25.195312 287.617188 25.078125 C 287.921875 24.960938 288.234375 24.886719 288.5625 24.867188 C 288.886719 24.84375 289.207031 24.867188 289.527344 24.941406 C 289.84375 25.015625 290.140625 25.136719 290.421875 25.300781 C 290.703125 25.46875 290.957031 25.671875 291.175781 25.914062 C 301.011719 36.707031 304.257812 51.691406 300.085938 67.023438 C 299.726562 68.386719 299.226562 69.699219 298.59375 70.960938 C 297.957031 72.21875 297.195312 73.398438 296.308594 74.496094 C 295.421875 75.59375 294.429688 76.585938 293.332031 77.472656 C 292.234375 78.363281 291.058594 79.125 289.800781 79.761719 C 286.253906 81.492188 282.507812 82.347656 278.5625 82.335938 Z M 290.917969 36.472656 C 290.546875 37.90625 290.074219 39.308594 289.507812 40.679688 C 288.941406 42.050781 288.285156 43.375 287.535156 44.652344 C 286.785156 45.929688 285.949219 47.152344 285.03125 48.316406 C 284.113281 49.476562 283.117188 50.574219 282.046875 51.597656 C 280.976562 52.625 279.84375 53.570312 278.640625 54.441406 C 277.441406 55.308594 276.183594 56.089844 274.875 56.785156 C 273.566406 57.480469 272.214844 58.085938 270.824219 58.59375 C 269.429688 59.101562 268.011719 59.511719 266.5625 59.824219 C 265.683594 60.007812 264.898438 60.386719 264.210938 60.964844 C 263.519531 61.539062 263.007812 62.246094 262.671875 63.078125 C 262.34375 63.875 262.222656 64.703125 262.308594 65.5625 C 262.394531 66.421875 262.675781 67.210938 263.15625 67.929688 C 264.511719 70.015625 266.242188 71.71875 268.347656 73.039062 C 269.734375 73.890625 271.207031 74.554688 272.757812 75.035156 C 274.3125 75.519531 275.902344 75.800781 277.523438 75.882812 C 279.148438 75.96875 280.757812 75.847656 282.351562 75.527344 C 283.949219 75.210938 285.476562 74.699219 286.945312 73.996094 C 288.664062 73.113281 290.128906 71.917969 291.335938 70.410156 C 292.542969 68.902344 293.390625 67.214844 293.875 65.34375 C 296.703125 54.9375 295.605469 44.796875 290.917969 36.472656 Z M 290.917969 36.472656"/></g><g clip-path="url(#d)"><path fill="#B29502" d="M 117.460938 82.335938 C 113.515625 82.347656 109.765625 81.492188 106.21875 79.761719 C 104.957031 79.125 103.78125 78.363281 102.683594 77.472656 C 101.585938 76.585938 100.59375 75.59375 99.707031 74.496094 C 98.820312 73.398438 98.058594 72.21875 97.421875 70.960938 C 96.785156 69.699219 96.285156 68.386719 95.925781 67.023438 C 91.753906 51.691406 95 36.707031 104.835938 25.914062 C 105.054688 25.671875 105.304688 25.464844 105.585938 25.300781 C 105.867188 25.136719 106.164062 25.015625 106.484375 24.941406 C 106.800781 24.863281 107.121094 24.839844 107.449219 24.863281 C 107.773438 24.886719 108.085938 24.957031 108.390625 25.074219 C 108.695312 25.191406 108.972656 25.355469 109.230469 25.558594 C 109.484375 25.761719 109.703125 25.996094 109.886719 26.265625 C 110.070312 26.539062 110.207031 26.828125 110.300781 27.140625 C 110.398438 27.453125 110.441406 27.773438 110.441406 28.097656 C 110.433594 29.570312 110.550781 31.035156 110.789062 32.488281 C 111.03125 33.945312 111.394531 35.367188 111.882812 36.757812 C 112.367188 38.148438 112.964844 39.488281 113.679688 40.777344 C 114.394531 42.066406 115.214844 43.289062 116.136719 44.4375 C 117.058594 45.585938 118.074219 46.648438 119.175781 47.625 C 120.28125 48.601562 121.460938 49.476562 122.714844 50.25 C 123.96875 51.023438 125.28125 51.6875 126.648438 52.238281 C 128.015625 52.789062 129.417969 53.21875 130.859375 53.527344 C 131.800781 53.734375 132.703125 54.050781 133.566406 54.476562 C 134.429688 54.902344 135.230469 55.425781 135.96875 56.042969 C 136.707031 56.664062 137.359375 57.363281 137.925781 58.144531 C 138.492188 58.921875 138.957031 59.757812 139.320312 60.648438 C 139.683594 61.527344 139.933594 62.433594 140.070312 63.371094 C 140.210938 64.308594 140.230469 65.25 140.140625 66.191406 C 140.046875 67.136719 139.839844 68.054688 139.519531 68.945312 C 139.199219 69.839844 138.777344 70.679688 138.25 71.46875 C 136.382812 74.339844 134 76.683594 131.09375 78.503906 C 129.046875 79.765625 126.863281 80.722656 124.546875 81.371094 C 122.230469 82.023438 119.867188 82.34375 117.460938 82.335938 Z M 105.097656 36.472656 C 100.417969 44.796875 99.324219 54.9375 102.136719 65.328125 C 102.621094 67.203125 103.464844 68.894531 104.675781 70.40625 C 105.882812 71.917969 107.351562 73.113281 109.074219 73.996094 C 110.539062 74.699219 112.070312 75.210938 113.664062 75.53125 C 115.257812 75.851562 116.871094 75.972656 118.492188 75.890625 C 120.117188 75.808594 121.707031 75.527344 123.261719 75.046875 C 124.816406 74.566406 126.289062 73.902344 127.675781 73.054688 C 129.78125 71.730469 131.507812 70.027344 132.859375 67.941406 C 133.339844 67.222656 133.621094 66.4375 133.707031 65.578125 C 133.792969 64.71875 133.671875 63.890625 133.34375 63.09375 C 133.007812 62.261719 132.5 61.554688 131.8125 60.980469 C 131.125 60.402344 130.339844 60.023438 129.464844 59.839844 C 128.015625 59.527344 126.59375 59.113281 125.199219 58.605469 C 123.808594 58.097656 122.457031 57.496094 121.148438 56.800781 C 119.839844 56.105469 118.582031 55.324219 117.382812 54.453125 C 116.179688 53.585938 115.042969 52.636719 113.972656 51.613281 C 112.902344 50.585938 111.910156 49.492188 110.992188 48.328125 C 110.070312 47.164062 109.238281 45.945312 108.488281 44.664062 C 107.734375 43.386719 107.078125 42.0625 106.511719 40.695312 C 105.941406 39.324219 105.472656 37.921875 105.097656 36.488281 Z M 105.097656 36.472656"/></g><path fill="#37545B" d="M 252.019531 138.847656 C 251.832031 138.46875 251.582031 138.132812 251.265625 137.851562 C 250.949219 137.566406 250.59375 137.355469 250.191406 137.214844 C 249.792969 137.070312 249.382812 137.011719 248.957031 137.03125 C 248.535156 137.050781 248.128906 137.152344 247.746094 137.332031 L 213.878906 153.597656 C 213.550781 153.757812 213.253906 153.964844 212.996094 154.226562 C 212.738281 154.484375 212.53125 154.777344 212.371094 155.109375 C 212.214844 155.441406 212.113281 155.789062 212.074219 156.152344 C 212.035156 156.515625 212.054688 156.875 212.140625 157.234375 C 212.222656 157.589844 212.363281 157.921875 212.558594 158.230469 C 212.753906 158.539062 212.996094 158.808594 213.285156 159.035156 C 213.570312 159.261719 213.886719 159.433594 214.234375 159.554688 C 214.582031 159.671875 214.9375 159.730469 215.304688 159.730469 C 215.597656 159.726562 215.890625 159.6875 216.171875 159.609375 C 216.347656 160.121094 216.546875 160.625 216.769531 161.117188 C 216.996094 161.609375 217.25 162.089844 217.523438 162.558594 C 217.800781 163.023438 218.101562 163.472656 218.425781 163.910156 C 218.75 164.34375 219.097656 164.757812 219.464844 165.15625 C 219.835938 165.554688 220.222656 165.933594 220.632812 166.289062 C 221.039062 166.644531 221.464844 166.980469 221.910156 167.292969 C 222.355469 167.601562 222.8125 167.890625 223.285156 168.152344 C 223.761719 168.417969 224.25 168.652344 224.746094 168.863281 C 225.246094 169.078125 225.757812 169.261719 226.273438 169.417969 C 226.792969 169.574219 227.320312 169.707031 227.851562 169.808594 C 228.386719 169.910156 228.921875 169.984375 229.460938 170.027344 C 230.003906 170.074219 230.542969 170.089844 231.085938 170.078125 C 231.628906 170.0625 232.167969 170.023438 232.707031 169.953125 C 233.246094 169.882812 233.777344 169.785156 234.304688 169.660156 C 234.832031 169.535156 235.351562 169.382812 235.863281 169.199219 C 236.375 169.019531 236.875 168.8125 237.363281 168.578125 C 237.851562 168.34375 238.328125 168.085938 238.789062 167.800781 C 239.25 167.515625 239.699219 167.207031 240.125 166.878906 C 240.554688 166.546875 240.964844 166.191406 241.359375 165.816406 C 241.75 165.441406 242.121094 165.046875 242.472656 164.632812 C 242.820312 164.21875 243.148438 163.789062 243.453125 163.339844 C 243.757812 162.890625 244.035156 162.425781 244.292969 161.949219 C 244.546875 161.46875 244.777344 160.980469 244.980469 160.476562 C 245.183594 159.972656 245.359375 159.460938 245.507812 158.941406 C 245.65625 158.417969 245.777344 157.890625 245.871094 157.355469 C 245.964844 156.820312 246.027344 156.285156 246.066406 155.742188 C 246.101562 155.203125 246.109375 154.660156 246.085938 154.117188 C 246.066406 153.578125 246.015625 153.039062 245.9375 152.5 C 245.859375 151.964844 245.753906 151.433594 245.617188 150.910156 C 245.484375 150.382812 245.320312 149.867188 245.132812 149.359375 C 244.945312 148.851562 244.726562 148.351562 244.484375 147.867188 C 244.242188 147.382812 243.976562 146.910156 243.683594 146.453125 L 250.566406 143.148438 C 250.945312 142.960938 251.273438 142.703125 251.554688 142.382812 C 251.832031 142.0625 252.039062 141.699219 252.175781 141.296875 C 252.3125 140.894531 252.367188 140.480469 252.339844 140.058594 C 252.3125 139.632812 252.203125 139.230469 252.019531 138.847656 Z M 252.019531 138.847656"/><path fill="#37545B" d="M 139.546875 138.847656 C 139.730469 138.464844 139.980469 138.132812 140.296875 137.847656 C 140.613281 137.566406 140.972656 137.351562 141.371094 137.210938 C 141.773438 137.070312 142.183594 137.007812 142.609375 137.027344 C 143.03125 137.050781 143.4375 137.152344 143.820312 137.332031 L 177.6875 153.597656 C 178.015625 153.757812 178.308594 153.964844 178.570312 154.226562 C 178.828125 154.484375 179.035156 154.777344 179.195312 155.109375 C 179.351562 155.441406 179.453125 155.789062 179.492188 156.152344 C 179.53125 156.515625 179.511719 156.875 179.425781 157.234375 C 179.34375 157.589844 179.203125 157.921875 179.007812 158.230469 C 178.8125 158.539062 178.570312 158.808594 178.28125 159.035156 C 177.996094 159.261719 177.675781 159.433594 177.332031 159.554688 C 176.984375 159.671875 176.628906 159.730469 176.261719 159.730469 C 175.964844 159.726562 175.675781 159.6875 175.394531 159.609375 C 175.222656 160.121094 175.023438 160.625 174.796875 161.121094 C 174.570312 161.613281 174.320312 162.09375 174.042969 162.5625 C 173.769531 163.03125 173.46875 163.480469 173.144531 163.917969 C 172.820312 164.351562 172.472656 164.769531 172.105469 165.167969 C 171.734375 165.566406 171.347656 165.945312 170.9375 166.300781 C 170.53125 166.660156 170.105469 166.992188 169.660156 167.304688 C 169.214844 167.617188 168.757812 167.90625 168.28125 168.171875 C 167.808594 168.433594 167.320312 168.671875 166.820312 168.882812 C 166.320312 169.097656 165.8125 169.28125 165.292969 169.4375 C 164.773438 169.597656 164.246094 169.726562 163.714844 169.828125 C 163.179688 169.929688 162.644531 170.003906 162.101562 170.050781 C 161.5625 170.09375 161.019531 170.113281 160.476562 170.101562 C 159.933594 170.085938 159.394531 170.046875 158.855469 169.976562 C 158.316406 169.90625 157.785156 169.808594 157.253906 169.683594 C 156.726562 169.558594 156.207031 169.40625 155.695312 169.222656 C 155.183594 169.042969 154.683594 168.835938 154.191406 168.601562 C 153.703125 168.367188 153.226562 168.105469 152.765625 167.824219 C 152.304688 167.539062 151.855469 167.230469 151.425781 166.898438 C 151 166.566406 150.585938 166.210938 150.195312 165.835938 C 149.804688 165.460938 149.433594 165.066406 149.082031 164.652344 C 148.730469 164.234375 148.40625 163.804688 148.101562 163.355469 C 147.796875 162.90625 147.515625 162.441406 147.261719 161.960938 C 147.007812 161.480469 146.777344 160.992188 146.574219 160.488281 C 146.371094 159.984375 146.195312 159.472656 146.046875 158.949219 C 145.898438 158.425781 145.777344 157.898438 145.683594 157.363281 C 145.589844 156.828125 145.527344 156.289062 145.492188 155.75 C 145.457031 155.207031 145.449219 154.664062 145.472656 154.121094 C 145.492188 153.582031 145.542969 153.039062 145.625 152.503906 C 145.703125 151.96875 145.808594 151.433594 145.945312 150.910156 C 146.082031 150.382812 146.242188 149.867188 146.433594 149.359375 C 146.625 148.851562 146.839844 148.355469 147.082031 147.867188 C 147.328125 147.382812 147.59375 146.910156 147.886719 146.453125 L 141.007812 143.148438 C 140.625 142.960938 140.292969 142.707031 140.011719 142.386719 C 139.734375 142.066406 139.523438 141.707031 139.386719 141.300781 C 139.25 140.898438 139.195312 140.484375 139.222656 140.058594 C 139.25 139.632812 139.359375 139.230469 139.546875 138.847656 Z M 139.546875 138.847656"/><path fill="#37545B" d="M 183.789062 182.515625 C 183.136719 182.515625 182.539062 182.332031 181.996094 181.96875 C 181.453125 181.605469 181.058594 181.121094 180.808594 180.515625 C 180.5625 179.910156 180.503906 179.289062 180.632812 178.648438 C 180.761719 178.007812 181.058594 177.457031 181.523438 176.996094 C 184.902344 173.660156 188.519531 170.609375 192.378906 167.839844 C 194.367188 166.414062 196.730469 164.871094 199.671875 164.519531 C 200.054688 164.476562 200.441406 164.453125 200.828125 164.453125 C 201.214844 164.453125 201.597656 164.472656 201.984375 164.515625 C 202.367188 164.558594 202.75 164.625 203.125 164.710938 C 203.503906 164.796875 203.871094 164.90625 204.238281 165.035156 C 204.601562 165.164062 204.957031 165.3125 205.304688 165.480469 C 205.652344 165.652344 205.988281 165.839844 206.316406 166.046875 C 206.640625 166.253906 206.953125 166.480469 207.253906 166.726562 C 207.554688 166.96875 207.839844 167.230469 208.109375 167.507812 C 208.378906 167.78125 208.632812 168.074219 208.871094 168.378906 C 209.105469 168.683594 209.324219 169.003906 209.527344 169.332031 C 209.726562 169.664062 209.910156 170.003906 210.070312 170.355469 C 210.230469 170.707031 210.375 171.066406 210.492188 171.433594 C 210.613281 171.800781 210.714844 172.171875 210.792969 172.550781 C 210.871094 172.929688 210.925781 173.3125 210.960938 173.695312 C 210.996094 174.082031 211.007812 174.46875 210.996094 174.855469 C 210.988281 175.242188 210.957031 175.625 210.902344 176.007812 C 210.84375 176.433594 210.703125 176.832031 210.488281 177.199219 C 210.269531 177.570312 209.988281 177.882812 209.648438 178.140625 C 209.304688 178.402344 208.925781 178.582031 208.511719 178.691406 C 208.09375 178.800781 207.675781 178.824219 207.25 178.765625 C 206.824219 178.703125 206.425781 178.566406 206.058594 178.347656 C 205.6875 178.128906 205.371094 177.851562 205.113281 177.507812 C 204.855469 177.164062 204.671875 176.785156 204.566406 176.371094 C 204.457031 175.957031 204.433594 175.535156 204.492188 175.109375 C 204.53125 174.832031 204.539062 174.550781 204.515625 174.269531 C 204.492188 173.988281 204.433594 173.710938 204.347656 173.445312 C 204.257812 173.175781 204.140625 172.921875 203.996094 172.679688 C 203.847656 172.4375 203.675781 172.214844 203.476562 172.015625 C 203.28125 171.8125 203.0625 171.636719 202.824219 171.484375 C 202.585938 171.332031 202.335938 171.207031 202.066406 171.113281 C 201.800781 171.019531 201.527344 170.957031 201.246094 170.925781 C 200.964844 170.894531 200.6875 170.898438 200.40625 170.929688 C 198.980469 171.09375 197.507812 172.085938 196.132812 173.066406 C 192.550781 175.636719 189.191406 178.46875 186.054688 181.570312 C 185.429688 182.195312 184.675781 182.511719 183.789062 182.515625 Z M 183.789062 182.515625"/><path fill="#FFF" d="M 219.113281 158.167969 C 219.167969 158.574219 219.269531 158.964844 219.414062 159.34375 C 219.5625 159.726562 219.75 160.082031 219.980469 160.417969 C 220.210938 160.753906 220.480469 161.058594 220.78125 161.332031 C 221.085938 161.601562 221.414062 161.835938 221.773438 162.03125 C 222.132812 162.222656 222.507812 162.375 222.902344 162.480469 C 223.296875 162.582031 223.695312 162.640625 224.101562 162.652344 C 224.511719 162.660156 224.914062 162.625 225.3125 162.539062 C 225.710938 162.453125 226.09375 162.324219 226.460938 162.148438 C 226.828125 161.972656 227.171875 161.753906 227.488281 161.5 C 227.804688 161.242188 228.085938 160.953125 228.332031 160.628906 C 228.582031 160.304688 228.789062 159.957031 228.953125 159.585938 C 229.117188 159.210938 229.238281 158.824219 229.3125 158.425781 C 229.386719 158.023438 229.410156 157.621094 229.390625 157.214844 C 229.367188 156.808594 229.296875 156.410156 229.183594 156.019531 C 229.066406 155.628906 228.90625 155.257812 228.703125 154.902344 C 228.496094 154.550781 228.253906 154.226562 227.972656 153.933594 Z M 219.113281 158.167969"/><path fill="#FFF" d="M 163.839844 154.089844 C 163.660156 154.214844 163.488281 154.355469 163.328125 154.503906 C 163.164062 154.652344 163.011719 154.8125 162.871094 154.980469 C 162.730469 155.148438 162.597656 155.328125 162.480469 155.511719 C 162.359375 155.699219 162.253906 155.890625 162.160156 156.089844 C 162.066406 156.289062 161.984375 156.496094 161.914062 156.703125 C 161.847656 156.914062 161.792969 157.128906 161.75 157.34375 C 161.710938 157.558594 161.683594 157.777344 161.671875 158 C 161.65625 158.21875 161.660156 158.441406 161.675781 158.660156 C 161.6875 158.878906 161.71875 159.097656 161.761719 159.3125 C 161.804688 159.53125 161.863281 159.742188 161.933594 159.953125 C 162.003906 160.160156 162.085938 160.363281 162.183594 160.5625 C 162.28125 160.761719 162.386719 160.953125 162.507812 161.136719 C 162.628906 161.320312 162.761719 161.496094 162.90625 161.664062 C 163.050781 161.832031 163.203125 161.988281 163.367188 162.136719 C 163.53125 162.285156 163.703125 162.421875 163.886719 162.546875 C 164.066406 162.671875 164.257812 162.785156 164.453125 162.886719 C 164.648438 162.988281 164.847656 163.078125 165.058594 163.152344 C 165.265625 163.226562 165.476562 163.289062 165.691406 163.339844 C 165.90625 163.386719 166.121094 163.421875 166.34375 163.441406 C 166.5625 163.460938 166.78125 163.46875 167.003906 163.460938 C 167.222656 163.453125 167.441406 163.433594 167.660156 163.398438 C 167.878906 163.359375 168.09375 163.3125 168.304688 163.25 C 168.515625 163.183594 168.722656 163.109375 168.921875 163.019531 C 169.125 162.929688 169.320312 162.828125 169.507812 162.714844 C 169.695312 162.597656 169.875 162.472656 170.050781 162.335938 C 170.222656 162.195312 170.382812 162.046875 170.539062 161.890625 C 170.691406 161.730469 170.832031 161.5625 170.964844 161.386719 C 171.097656 161.210938 171.21875 161.027344 171.324219 160.832031 C 171.433594 160.640625 171.527344 160.441406 171.613281 160.238281 C 171.695312 160.035156 171.761719 159.824219 171.820312 159.613281 C 171.875 159.398438 171.917969 159.183594 171.945312 158.964844 C 171.972656 158.746094 171.988281 158.523438 171.988281 158.304688 C 171.988281 158.191406 171.988281 158.082031 171.988281 157.976562 Z M 163.839844 154.089844"/></svg>